# xmcd CD database file
# Copyright (C) 1993-1998 Ti Kan
#
# Track frame offsets:
#	150
#	16210
#	29992
#	43892
#	56047
#	69185
#	79087
#	92427
#	106790
#	119357
#
# Disc length: 1753 seconds
#
# Revision: 2
# Processed by: cddbd v1.4b41PL1 Copyright (c) Steve Scherf et al.
# Submitted via: NotifyCDPlayer(CDDB) 1.51.3
#
DISCID=7d06d70a
DTITLE=Dolly Parton - Lassoes n Spurs
DYEAR=1900
DGENRE=
TTITLE0=Heartbreaker
TTITLE1=The Seeker
TTITLE2=Coat Of Many Colors
TTITLE3=Touch Your Woman
TTITLE4=I Will Always Love You
TTITLE5=Travelling Man
TTITLE6=Joshua
TTITLE7=Love, You're So Beautiful Tonight
TTITLE8=In The Ghetto
TTITLE9=The Bargain Store
EXTD=
EXTT0=
EXTT1=
EXTT2=
EXTT3=
EXTT4=
EXTT5=
EXTT6=
EXTT7=
EXTT8=
EXTT9=
PLAYORDER=
